<svg xmlns="http://www.w3.org/2000/svg" width="35.713" height="21.428" viewBox="0 0 35.713 21.428">
  <path id="Icon_awesome-backspace" data-name="Icon awesome-backspace" d="M32.141,4.5H11.454A3.57,3.57,0,0,0,8.928,5.547l-8.4,8.4a1.785,1.785,0,0,0,0,2.525l8.405,8.405a3.572,3.572,0,0,0,2.525,1.046H32.141a3.571,3.571,0,0,0,3.571-3.571V8.071A3.571,3.571,0,0,0,32.141,4.5ZM27.416,18.677a.893.893,0,0,1,0,1.263L26.153,21.2a.893.893,0,0,1-1.263,0l-3.463-3.463L17.965,21.2a.893.893,0,0,1-1.263,0L15.44,19.94a.893.893,0,0,1,0-1.263L18.9,15.214,15.44,11.751a.893.893,0,0,1,0-1.263L16.7,9.226a.893.893,0,0,1,1.263,0l3.463,3.463,3.463-3.463a.893.893,0,0,1,1.263,0l1.262,1.262a.893.893,0,0,1,0,1.263l-3.463,3.463Z" transform="translate(35.713 25.928) rotate(180)" fill="#435772"/>
</svg>
